<?xml version="1.0" standalone="no"?><!DOCTYPE svg PUBLIC "-//W3C//DTD SVG 1.1//EN" "http://www.w3.org/Graphics/SVG/1.1/DTD/svg11.dtd"><svg t="1596914490841" class="icon" viewBox="0 0 1024 1024" version="1.1" xmlns="http://www.w3.org/2000/svg" p-id="16230" width="48" height="48" xmlns:xlink="http://www.w3.org/1999/xlink"><defs><style type="text/css"></style></defs><path d="M274.432 1024c-20.48 0-36.864-16.384-36.864-36.864 0-10.24 4.096-19.456 11.264-25.6L698.368 512 248.832 62.464c-6.144-6.144-11.264-15.36-11.264-25.6 0-20.48 16.384-36.864 36.864-36.864 10.24 0 19.456 4.096 25.6 11.264l475.136 475.136c7.168 6.144 11.264 15.36 11.264 25.6s-4.096 19.456-11.264 25.6L300.032 1013.76c-6.144 6.144-15.36 10.24-25.6 10.24z m0 0" p-id="16231" fill="#8a8a8a"></path></svg>