<?xml version="1.0" standalone="no"?><!DOCTYPE svg PUBLIC "-//W3C//DTD SVG 1.1//EN" "http://www.w3.org/Graphics/SVG/1.1/DTD/svg11.dtd"><svg t="1596914526773" class="icon" viewBox="0 0 1024 1024" version="1.1" xmlns="http://www.w3.org/2000/svg" p-id="17504" width="48" height="48" xmlns:xlink="http://www.w3.org/1999/xlink"><defs><style type="text/css"></style></defs><path d="M240.48 483.52a42.0304 42.0304 0 0 0 0 60.48l480.8 467.52c17.12 16.64 45.12 16.64 62.24 0s17.12-43.84 0-60.48L302.72 483.52c-17.12-16.64-45.12-16.64-62.24 0z" fill="#8a8a8a" p-id="17505"></path><path d="M240.48 540.48c17.12 16.64 45.12 16.64 62.24 0L783.52 72.96c17.12-16.64 17.12-43.84 0-60.48-17.12-16.64-45.12-16.64-62.24 0L240.48 480a42.0304 42.0304 0 0 0 0 60.48z" fill="#8a8a8a" p-id="17506"></path></svg>